<?xml version="1.0" encoding="UTF-8"?> <svg xmlns="http://www.w3.org/2000/svg" width="290" height="40" viewBox="0 0 290 40" fill="none"><path fill-rule="evenodd" clip-rule="evenodd" d="M53.1561 9.072C55.8441 9.072 57.6931 7.056 57.6931 4.536C57.6931 2.016 55.8441 0 53.1561 0C50.4681 0 48.6211 2.017 48.6211 4.536C48.6211 7.055 50.4691 9.072 53.1561 9.072ZM6.16 1.7168H0V38.9178H6.16V14.3098L16.24 38.9178H21.112L31.192 14.5898V38.9178H37.352V1.7168H31.192L18.704 29.7338L6.16 1.7168ZM166.233 1.7168H159.894V38.9178H183.07V33.0698H166.233V1.7168ZM198.546 12.1489C190.595 12.1489 185.442 17.5249 185.442 25.8699C185.442 34.3259 190.538 39.5899 198.77 39.5899C205.041 39.5899 209.97 36.1739 210.753 31.3019H204.594C203.585 33.3189 201.793 34.2699 198.77 34.2699C194.346 34.2699 191.658 32.0309 191.49 27.8859H210.866C210.978 26.4299 211.034 25.5899 211.034 24.5269C211.034 17.1899 205.994 12.1499 198.546 12.1499V12.1489ZM191.49 23.2379C191.546 19.5419 194.122 16.9659 198.434 16.9659C202.634 16.9659 204.986 19.2059 205.041 23.2379H191.49ZM251.742 12.8219V17.8609C252.693 14.1649 255.83 12.4849 258.685 12.4849C259.637 12.4849 260.421 12.5409 261.093 12.7089V18.3089C260.141 18.1979 259.637 18.1979 258.685 18.1979C254.374 18.1979 251.742 21.4459 251.742 27.3819V38.9179H245.638V12.8219H251.742ZM279.702 12.149C275.838 12.149 272.814 13.662 271.19 16.461V12.821H265.086V38.917H271.19V24.581C271.19 19.989 273.429 17.356 277.406 17.356C281.662 17.356 283.118 19.764 283.118 25.308V38.916H289.222V22.509C289.222 15.677 285.974 12.149 279.702 12.149ZM75.065 16.461C76.6889 13.6622 79.7135 12.1492 83.577 12.149C89.849 12.149 93.097 15.677 93.097 22.509V38.916H86.993V25.308C86.993 19.764 85.538 17.356 81.281 17.356C77.305 17.356 75.065 19.989 75.065 24.581V38.917H68.961V12.821H75.065V16.461ZM114.31 12.1489C110.447 12.1492 107.422 13.6622 105.798 16.4609V12.8209H99.6943V38.9169H105.798V24.5809C105.798 19.9889 108.038 17.3559 112.014 17.3559C116.271 17.3559 117.726 19.7639 117.726 25.3079V38.9159H123.83V22.5089C123.83 15.6769 120.582 12.1489 114.31 12.1489ZM56.2087 12.8218V17.5788C56.2087 26.4068 59.5317 30.1178 66.6337 34.5378L63.3237 39.5178C58.9977 36.8758 54.4487 32.4128 53.1567 27.8058C51.8647 32.4128 47.3157 36.8758 42.9897 39.5178L39.6797 34.5378C46.7817 30.1178 50.1047 26.4068 50.1047 17.5788V12.8218H56.2087ZM128.759 31.6369C128.759 29.0049 129.767 26.7649 131.838 25.3089C133.855 23.7969 136.99 23.0129 141.639 22.8449L146.567 22.6769V21.2209C146.567 18.3089 144.607 17.0769 141.471 17.0769C138.166 17.0769 136.038 18.3649 135.815 20.4369H129.711C130.159 15.7889 133.688 12.1489 141.695 12.1489C149.758 12.1489 152.671 15.9009 152.671 23.0689V38.9169H146.511V35.7809C145.167 37.9089 142.648 39.5889 138.056 39.5889C132.455 39.5889 128.76 36.6769 128.76 31.6369H128.759ZM146.567 28.3329V27.1569L140.183 27.4929C136.823 27.6609 134.863 29.0609 134.863 31.4129C134.863 33.5409 136.655 34.7169 139.791 34.7169C144.047 34.7169 146.567 32.4209 146.567 28.3329ZM218.208 25.309C216.137 26.765 215.129 29.005 215.129 31.637H215.13C215.13 36.677 218.825 39.589 224.426 39.589C229.018 39.589 231.537 37.909 232.881 35.781V38.917H239.041V23.069C239.041 15.901 236.128 12.149 228.065 12.149C220.058 12.149 216.529 15.789 216.081 20.437H222.185C222.408 18.365 224.536 17.077 227.841 17.077C230.977 17.077 232.937 18.309 232.937 21.221V22.677L228.009 22.845C223.36 23.013 220.225 23.797 218.208 25.309ZM232.937 27.157V28.333C232.937 32.421 230.417 34.717 226.161 34.717C223.025 34.717 221.233 33.541 221.233 31.413C221.233 29.061 223.193 27.661 226.553 27.493L232.937 27.157Z" fill="#24305E"></path></svg> 
